<svg width="637" height="585" viewBox="0 0 637 585" fill="none" xmlns="http://www.w3.org/2000/svg">
<path d="M311.513 223.175C326.476 208.953 341.29 196.272 355.541 185.389C273.621 134.053 187.58 125.788 148.021 170.352C169.17 147.041 236.7 170.305 311.513 223.175Z" fill="#F1F1F1"/>
<path d="M444.629 262.623C432.255 247.991 418.224 233.758 402.668 220.306C387.367 207.073 371.531 195.412 355.541 185.389C341.29 196.272 326.476 208.953 311.513 223.175C329.007 235.539 346.902 249.523 364.693 264.908C382.484 280.294 398.904 295.984 413.663 311.511C425.544 294.7 435.931 278.255 444.629 262.623Z" fill="#F1F1F1"/>
<path d="M444.628 262.624C435.93 278.256 425.543 294.701 413.662 311.512C471.876 372.762 504.267 431.515 493.236 459.326C525.372 412.846 504.232 333.104 444.628 262.624Z" fill="#F1F1F1"/>
<path d="M325.325 413.662C310.138 428.097 295.104 440.944 280.657 451.935C359.643 501.208 442.336 510.434 483.414 470.879C457.699 486.216 394.638 462.647 325.325 413.662Z" fill="#F1F1F1"/>
<path d="M223.175 325.326C211.049 342.483 200.481 359.258 191.675 375.177C203.867 389.502 217.65 403.438 232.898 416.624C248.4 430.029 264.451 441.826 280.656 451.935C295.103 440.944 310.137 428.097 325.325 413.663C307.83 401.299 289.935 387.315 272.144 371.929C254.353 356.544 237.933 340.854 223.175 325.326Z" fill="#F1F1F1"/>
<path d="M147.37 171.095C108.084 216.524 128.609 301.078 191.675 375.177C200.481 359.257 211.049 342.483 223.175 325.326C159.81 258.657 127.038 194.946 147.56 170.876C147.521 170.921 147.483 170.964 147.444 171.009C147.419 171.038 147.394 171.067 147.37 171.095Z" fill="#F1F1F1"/>
<path d="M488.197 465.834C486.673 467.597 485.078 469.278 483.414 470.879ZM488.197 465.834C490.002 463.747 491.682 461.575 493.236 459.326ZM488.197 465.834C486.84 467.403 485.466 468.948 484.077 470.471ZM488.197 465.834C489.772 464.012 491.314 462.172 492.82 460.314ZM170.414 488.879C76.2967 407.489 65.9795 265.213 147.37 171.095ZM170.414 488.879L170.675 489.105ZM170.414 488.879C170.501 488.954 170.588 489.03 170.675 489.105ZM147.37 171.095C108.084 216.524 128.609 301.078 191.675 375.177ZM147.37 171.095C147.395 171.067 147.419 171.038 147.444 171.009ZM147.665 170.754L147.594 170.836ZM147.665 170.754C147.709 170.703 147.754 170.651 147.8 170.6ZM147.665 170.754C147.641 170.782 147.618 170.809 147.594 170.836ZM170.754 489.173C170.805 489.217 170.857 489.262 170.908 489.305ZM170.754 489.173L170.675 489.105ZM170.754 489.173C170.728 489.151 170.703 489.129 170.675 489.105ZM460.406 144.058C462.489 144.997 464.386 146.196 466.083 147.664C467.805 149.153 469.283 150.886 470.525 152.847M460.406 144.058C462.001 145.364 463.584 146.694 465.153 148.051C466.976 149.627 468.765 151.225 470.525 152.847M460.406 144.058C366.479 67.1664 227.9 78.5068 147.8 170.6ZM470.525 152.847C482.707 172.086 472.062 213.318 444.628 262.623ZM470.525 152.847C557.874 233.312 567.649 368.089 492.82 460.314ZM170.908 489.305C170.831 489.239 170.753 489.172 170.675 489.105ZM170.908 489.305C189.512 505.106 231.715 489.17 280.657 451.935ZM170.908 489.305C263.456 568.881 402.223 560.11 484.077 470.471ZM444.628 262.623C432.255 247.991 418.224 233.758 402.668 220.306C387.366 207.074 371.531 195.412 355.541 185.39M444.628 262.623C435.93 278.256 425.543 294.701 413.662 311.512ZM444.628 262.623C504.232 333.103 525.372 412.846 493.236 459.326ZM413.662 311.512C398.903 295.985 382.484 280.294 364.693 264.909C346.902 249.523 329.007 235.539 311.512 223.175M413.662 311.512C401.298 329.009 387.314 346.901 371.929 364.692C356.542 382.485 340.854 398.904 325.325 413.662M413.662 311.512C471.876 372.762 504.267 431.514 493.236 459.326ZM311.512 223.175C326.476 208.953 341.29 196.272 355.541 185.39ZM311.512 223.175C236.7 170.305 169.17 147.042 148.021 170.352ZM355.541 185.39C273.62 134.053 187.58 125.788 148.021 170.352ZM148.021 170.352C147.947 170.434 147.872 170.517 147.8 170.6ZM148.021 170.352C147.878 170.513 147.735 170.675 147.594 170.836ZM191.675 375.177C200.482 359.257 211.05 342.483 223.175 325.326ZM191.675 375.177C203.867 389.502 217.651 403.438 232.898 416.623C248.4 430.029 264.451 441.825 280.657 451.935M223.175 325.326C159.81 258.657 127.038 194.946 147.56 170.876ZM223.175 325.326C237.933 340.854 254.353 356.544 272.144 371.929C289.936 387.314 307.83 401.299 325.325 413.662M147.56 170.876L147.444 171.009ZM147.56 170.876C147.572 170.862 147.582 170.85 147.594 170.836ZM147.56 170.876C147.521 170.921 147.483 170.964 147.444 171.009ZM147.56 170.876L147.594 170.836ZM280.657 451.935C295.104 440.944 310.138 428.097 325.325 413.662ZM280.657 451.935C359.643 501.208 442.336 510.434 483.414 470.879ZM325.325 413.662C394.638 462.647 457.699 486.216 483.414 470.879ZM483.414 470.879C483.639 470.747 483.86 470.609 484.077 470.471ZM493.236 459.326C493.105 459.66 492.965 459.99 492.82 460.314ZM147.444 171.009L147.594 170.836ZM147.444 171.009C147.494 170.952 147.543 170.895 147.594 170.836ZM147.594 170.836C147.663 170.757 147.731 170.678 147.8 170.6ZM492.82 460.314C491.876 462.434 490.662 464.361 489.173 466.082C487.706 467.78 486.002 469.24 484.077 470.471" fill="#F1F1F1"/>
<path d="M488.197 465.834C486.673 467.597 485.078 469.278 483.414 470.879M488.197 465.834C490.002 463.747 491.682 461.575 493.236 459.326M488.197 465.834C486.84 467.403 485.466 468.948 484.077 470.471M488.197 465.834C489.772 464.012 491.314 462.172 492.82 460.314M483.414 470.879C442.336 510.434 359.643 501.208 280.657 451.935M483.414 470.879C457.699 486.216 394.638 462.647 325.325 413.662M483.414 470.879C483.639 470.747 483.86 470.609 484.077 470.471M493.236 459.326C525.372 412.846 504.232 333.103 444.628 262.623M493.236 459.326C504.267 431.514 471.876 372.762 413.662 311.512M493.236 459.326C493.105 459.66 492.965 459.99 492.82 460.314M484.077 470.471C402.223 560.11 263.456 568.881 170.908 489.305M484.077 470.471C486.002 469.24 487.706 467.78 489.173 466.082C490.662 464.361 491.876 462.434 492.82 460.314M492.82 460.314C567.649 368.089 557.874 233.312 470.525 152.847M170.414 488.879C76.2967 407.489 65.9795 265.213 147.37 171.095M170.414 488.879L170.675 489.105M170.414 488.879C170.501 488.954 170.588 489.03 170.675 489.105M147.37 171.095C108.084 216.524 128.609 301.078 191.675 375.177M147.37 171.095C147.395 171.067 147.419 171.038 147.444 171.009M170.675 489.105L170.754 489.173M170.675 489.105C170.703 489.129 170.728 489.151 170.754 489.173M170.675 489.105C170.753 489.172 170.831 489.239 170.908 489.305M191.675 375.177C200.482 359.257 211.05 342.483 223.175 325.326M191.675 375.177C203.867 389.502 217.651 403.438 232.898 416.623C248.4 430.029 264.451 441.825 280.657 451.935M147.444 171.009L147.56 170.876M147.444 171.009C147.483 170.964 147.521 170.921 147.56 170.876M147.444 171.009L147.594 170.836M147.444 171.009C147.494 170.952 147.543 170.895 147.594 170.836M147.665 170.754L147.594 170.836M147.665 170.754C147.709 170.703 147.754 170.651 147.8 170.6M147.665 170.754C147.641 170.782 147.618 170.809 147.594 170.836M147.594 170.836C147.735 170.675 147.878 170.513 148.021 170.352M147.594 170.836C147.582 170.85 147.572 170.862 147.56 170.876M147.594 170.836L147.56 170.876M147.594 170.836C147.663 170.757 147.731 170.678 147.8 170.6M147.8 170.6C227.9 78.5068 366.479 67.1664 460.406 144.058M147.8 170.6C147.872 170.517 147.947 170.434 148.021 170.352M170.754 489.173C170.805 489.217 170.857 489.262 170.908 489.305M170.908 489.305C189.512 505.106 231.715 489.17 280.657 451.935M460.406 144.058C462.489 144.997 464.386 146.196 466.083 147.664C467.805 149.153 469.283 150.886 470.525 152.847M460.406 144.058C462.001 145.364 463.584 146.694 465.153 148.051C466.976 149.627 468.765 151.225 470.525 152.847M470.525 152.847C482.707 172.086 472.062 213.318 444.628 262.623M444.628 262.623C432.255 247.991 418.224 233.758 402.668 220.306C387.366 207.074 371.531 195.412 355.541 185.39M444.628 262.623C435.93 278.256 425.543 294.701 413.662 311.512M280.657 451.935C295.104 440.944 310.138 428.097 325.325 413.662M355.541 185.39C341.29 196.272 326.476 208.953 311.512 223.175M355.541 185.39C273.62 134.053 187.58 125.788 148.021 170.352M413.662 311.512C398.903 295.985 382.484 280.294 364.693 264.909C346.902 249.523 329.007 235.539 311.512 223.175M413.662 311.512C401.298 329.009 387.314 346.901 371.929 364.692C356.542 382.485 340.854 398.904 325.325 413.662M311.512 223.175C236.7 170.305 169.17 147.042 148.021 170.352M325.325 413.662C307.83 401.299 289.936 387.314 272.144 371.929C254.353 356.544 237.933 340.854 223.175 325.326M223.175 325.326C159.81 258.657 127.038 194.946 147.56 170.876" stroke="#81B3D2" stroke-width="3.60474" stroke-linecap="round" stroke-linejoin="round"/>
<path fill-rule="evenodd" clip-rule="evenodd" d="M170.414 488.879C76.2967 407.489 65.9795 265.213 147.37 171.095C108.084 216.524 128.609 301.078 191.675 375.177C203.867 389.502 217.651 403.438 232.898 416.623C248.4 430.029 264.451 441.825 280.657 451.935C359.643 501.208 442.336 510.434 483.414 470.879C457.699 486.216 394.638 462.647 325.325 413.662C340.854 398.904 356.542 382.485 371.929 364.692C387.314 346.901 401.298 329.009 413.662 311.512C471.876 372.762 504.267 431.514 493.236 459.326C525.372 412.846 504.232 333.103 444.628 262.623C432.255 247.991 418.224 233.758 402.668 220.306C387.366 207.074 371.531 195.412 355.541 185.39C273.62 134.053 187.58 125.788 148.021 170.352C147.878 170.513 147.735 170.675 147.594 170.836C147.582 170.85 147.572 170.862 147.56 170.876L147.444 171.009L147.594 170.836L147.665 170.754C147.709 170.703 147.754 170.651 147.8 170.6C227.9 78.5068 366.479 67.1664 460.406 144.058C462.489 144.997 464.386 146.196 466.083 147.664C467.805 149.153 469.283 150.886 470.525 152.847C557.874 233.312 567.649 368.089 492.82 460.314C491.876 462.434 490.662 464.361 489.173 466.082C487.706 467.78 486.002 469.24 484.077 470.471C402.223 560.11 263.456 568.881 170.908 489.305C170.857 489.262 170.805 489.217 170.754 489.173L170.675 489.105L170.414 488.879Z" fill="#F1F1F1"/>
<path d="M413.662 311.512C398.903 295.985 382.484 280.294 364.693 264.909C346.902 249.523 329.006 235.54 311.512 223.175C236.699 170.305 169.169 147.042 148.021 170.352C147.878 170.513 147.735 170.675 147.594 170.836L147.56 170.876C127.038 194.946 159.81 258.657 223.175 325.326C237.933 340.854 254.353 356.544 272.144 371.929C289.935 387.314 307.83 401.299 325.325 413.662C340.854 398.904 356.542 382.485 371.929 364.692C387.314 346.901 401.298 329.009 413.662 311.512Z" fill="#F1F1F1"/>
<path d="M413.662 311.512C398.903 295.985 382.484 280.294 364.693 264.909C346.902 249.523 329.007 235.539 311.512 223.175C236.7 170.305 169.17 147.042 148.021 170.352M413.662 311.512C401.298 329.009 387.314 346.901 371.929 364.692C356.542 382.485 340.854 398.904 325.325 413.662M413.662 311.512C471.876 372.762 504.267 431.514 493.236 459.326C525.372 412.846 504.232 333.103 444.628 262.623C432.255 247.991 418.224 233.758 402.668 220.306C387.366 207.074 371.531 195.412 355.541 185.39C273.62 134.053 187.58 125.788 148.021 170.352M148.021 170.352C147.878 170.513 147.735 170.675 147.594 170.836ZM147.56 170.876C127.038 194.946 159.81 258.657 223.175 325.326C237.933 340.854 254.353 356.544 272.144 371.929C289.936 387.314 307.83 401.299 325.325 413.662M147.56 170.876L147.444 171.009L147.594 170.836M147.56 170.876C147.572 170.862 147.582 170.85 147.594 170.836ZM147.56 170.876L147.594 170.836ZM325.325 413.662C394.638 462.647 457.699 486.216 483.414 470.879C442.336 510.434 359.643 501.208 280.657 451.935C264.451 441.825 248.4 430.029 232.898 416.623C217.651 403.438 203.867 389.502 191.675 375.177C128.609 301.078 108.084 216.524 147.37 171.095C65.9795 265.213 76.2967 407.489 170.414 488.879L170.675 489.105L170.754 489.173C170.805 489.217 170.857 489.262 170.908 489.305C263.456 568.881 402.223 560.11 484.077 470.471C486.002 469.24 487.706 467.78 489.173 466.082C490.662 464.361 491.876 462.434 492.82 460.314C567.649 368.089 557.874 233.312 470.525 152.847C469.283 150.886 467.805 149.153 466.083 147.664C464.386 146.196 462.489 144.997 460.406 144.058C366.479 67.1664 227.9 78.5068 147.8 170.6C147.754 170.651 147.709 170.703 147.665 170.754L147.594 170.836" fill="#F1F1F1"/>
<path d="M413.662 311.512C398.903 295.985 382.484 280.294 364.693 264.909C346.902 249.523 329.007 235.539 311.512 223.175C236.7 170.305 169.17 147.042 148.021 170.352M413.662 311.512C401.298 329.009 387.314 346.901 371.929 364.692C356.542 382.485 340.854 398.904 325.325 413.662M413.662 311.512C471.876 372.762 504.267 431.514 493.236 459.326C525.372 412.846 504.232 333.103 444.628 262.623C432.255 247.991 418.224 233.758 402.668 220.306C387.366 207.074 371.531 195.412 355.541 185.39C273.62 134.053 187.58 125.788 148.021 170.352M148.021 170.352C147.878 170.513 147.735 170.675 147.594 170.836M325.325 413.662C307.83 401.299 289.936 387.314 272.144 371.929C254.353 356.544 237.933 340.854 223.175 325.326C159.81 258.657 127.038 194.946 147.56 170.876M325.325 413.662C394.638 462.647 457.699 486.216 483.414 470.879C442.336 510.434 359.643 501.208 280.657 451.935C264.451 441.825 248.4 430.029 232.898 416.623C217.651 403.438 203.867 389.502 191.675 375.177C128.609 301.078 108.084 216.524 147.37 171.095C65.9795 265.213 76.2967 407.489 170.414 488.879L170.675 489.105L170.754 489.173C170.805 489.217 170.857 489.262 170.908 489.305C263.456 568.881 402.223 560.11 484.077 470.471C486.002 469.24 487.706 467.78 489.173 466.082C490.662 464.361 491.876 462.434 492.82 460.314C567.649 368.089 557.874 233.312 470.525 152.847C469.283 150.886 467.805 149.153 466.083 147.664C464.386 146.196 462.489 144.997 460.406 144.058C366.479 67.1664 227.9 78.5068 147.8 170.6C147.754 170.651 147.709 170.703 147.665 170.754L147.594 170.836M147.594 170.836L147.444 171.009L147.56 170.876M147.594 170.836C147.582 170.85 147.572 170.862 147.56 170.876M147.594 170.836L147.56 170.876" stroke="#81B3D2" stroke-width="3.60474" stroke-linejoin="round"/>
</svg>
